<mxfile host="app.diagrams.net" agent="Mozilla/5.0 (X11; Ubuntu; Linux x86_64; rv:134.0) Gecko/20100101 Firefox/134.0" version="26.0.9">
  <diagram name="Page-1" id="eYDmSWrvKsGZKdF5tQEn">
    <mxGraphModel dx="1044" dy="915" grid="1" gridSize="10" guides="1" tooltips="1" connect="1" arrows="1" fold="1" page="1" pageScale="1" pageWidth="850" pageHeight="1100" math="0" shadow="0">
      <root>
        <mxCell id="0" />
        <mxCell id="1" parent="0" />
        <mxCell id="qxm1m2TuvtweTUUU2DV8-21" value="" style="edgeStyle=orthogonalEdgeStyle;rounded=0;orthogonalLoop=1;jettySize=auto;html=1;" edge="1" parent="1" source="qxm1m2TuvtweTUUU2DV8-1" target="qxm1m2TuvtweTUUU2DV8-2">
          <mxGeometry relative="1" as="geometry" />
        </mxCell>
        <mxCell id="qxm1m2TuvtweTUUU2DV8-1" value="START" style="ellipse;whiteSpace=wrap;html=1;" vertex="1" parent="1">
          <mxGeometry x="380" y="30" width="120" height="80" as="geometry" />
        </mxCell>
        <mxCell id="qxm1m2TuvtweTUUU2DV8-20" value="" style="edgeStyle=orthogonalEdgeStyle;rounded=0;orthogonalLoop=1;jettySize=auto;html=1;" edge="1" parent="1" source="qxm1m2TuvtweTUUU2DV8-2" target="qxm1m2TuvtweTUUU2DV8-3">
          <mxGeometry relative="1" as="geometry" />
        </mxCell>
        <mxCell id="qxm1m2TuvtweTUUU2DV8-2" value="Read n" style="shape=parallelogram;perimeter=parallelogramPerimeter;whiteSpace=wrap;html=1;fixedSize=1;" vertex="1" parent="1">
          <mxGeometry x="380" y="150" width="120" height="60" as="geometry" />
        </mxCell>
        <mxCell id="qxm1m2TuvtweTUUU2DV8-16" style="edgeStyle=orthogonalEdgeStyle;rounded=0;orthogonalLoop=1;jettySize=auto;html=1;entryX=0.5;entryY=0;entryDx=0;entryDy=0;" edge="1" parent="1" source="qxm1m2TuvtweTUUU2DV8-3" target="qxm1m2TuvtweTUUU2DV8-4">
          <mxGeometry relative="1" as="geometry" />
        </mxCell>
        <mxCell id="qxm1m2TuvtweTUUU2DV8-17" value="TRUE" style="edgeLabel;html=1;align=center;verticalAlign=middle;resizable=0;points=[];" vertex="1" connectable="0" parent="qxm1m2TuvtweTUUU2DV8-16">
          <mxGeometry x="-0.15" relative="1" as="geometry">
            <mxPoint as="offset" />
          </mxGeometry>
        </mxCell>
        <mxCell id="qxm1m2TuvtweTUUU2DV8-18" style="edgeStyle=orthogonalEdgeStyle;rounded=0;orthogonalLoop=1;jettySize=auto;html=1;" edge="1" parent="1" source="qxm1m2TuvtweTUUU2DV8-3" target="qxm1m2TuvtweTUUU2DV8-2">
          <mxGeometry relative="1" as="geometry">
            <mxPoint x="310" y="180" as="targetPoint" />
            <Array as="points">
              <mxPoint x="311" y="290" />
              <mxPoint x="311" y="180" />
            </Array>
          </mxGeometry>
        </mxCell>
        <mxCell id="qxm1m2TuvtweTUUU2DV8-19" value="FALSE" style="edgeLabel;html=1;align=center;verticalAlign=middle;resizable=0;points=[];" vertex="1" connectable="0" parent="qxm1m2TuvtweTUUU2DV8-18">
          <mxGeometry x="-0.5827" y="-2" relative="1" as="geometry">
            <mxPoint as="offset" />
          </mxGeometry>
        </mxCell>
        <mxCell id="qxm1m2TuvtweTUUU2DV8-3" value="n%1==0" style="rhombus;whiteSpace=wrap;html=1;" vertex="1" parent="1">
          <mxGeometry x="400" y="250" width="80" height="80" as="geometry" />
        </mxCell>
        <mxCell id="qxm1m2TuvtweTUUU2DV8-8" value="" style="edgeStyle=orthogonalEdgeStyle;rounded=0;orthogonalLoop=1;jettySize=auto;html=1;" edge="1" parent="1" source="qxm1m2TuvtweTUUU2DV8-4" target="qxm1m2TuvtweTUUU2DV8-5">
          <mxGeometry relative="1" as="geometry" />
        </mxCell>
        <mxCell id="qxm1m2TuvtweTUUU2DV8-10" value="TRUE" style="edgeLabel;html=1;align=center;verticalAlign=middle;resizable=0;points=[];" vertex="1" connectable="0" parent="qxm1m2TuvtweTUUU2DV8-8">
          <mxGeometry x="0.15" y="2" relative="1" as="geometry">
            <mxPoint as="offset" />
          </mxGeometry>
        </mxCell>
        <mxCell id="qxm1m2TuvtweTUUU2DV8-11" value="" style="edgeStyle=orthogonalEdgeStyle;rounded=0;orthogonalLoop=1;jettySize=auto;html=1;" edge="1" parent="1" source="qxm1m2TuvtweTUUU2DV8-4" target="qxm1m2TuvtweTUUU2DV8-7">
          <mxGeometry relative="1" as="geometry" />
        </mxCell>
        <mxCell id="qxm1m2TuvtweTUUU2DV8-4" value="&lt;div&gt;n%2==0&lt;/div&gt;&lt;div&gt;AND n&amp;gt;10&lt;br&gt;&lt;/div&gt;" style="rhombus;whiteSpace=wrap;html=1;" vertex="1" parent="1">
          <mxGeometry x="400" y="370" width="80" height="80" as="geometry" />
        </mxCell>
        <mxCell id="qxm1m2TuvtweTUUU2DV8-22" style="edgeStyle=orthogonalEdgeStyle;rounded=0;orthogonalLoop=1;jettySize=auto;html=1;" edge="1" parent="1" source="qxm1m2TuvtweTUUU2DV8-5" target="qxm1m2TuvtweTUUU2DV8-23">
          <mxGeometry relative="1" as="geometry">
            <mxPoint x="420" y="720" as="targetPoint" />
            <Array as="points">
              <mxPoint x="240" y="590" />
              <mxPoint x="251" y="590" />
            </Array>
          </mxGeometry>
        </mxCell>
        <mxCell id="qxm1m2TuvtweTUUU2DV8-5" value="Write &quot;Numero Valido&quot;" style="shape=parallelogram;perimeter=parallelogramPerimeter;whiteSpace=wrap;html=1;fixedSize=1;" vertex="1" parent="1">
          <mxGeometry x="180" y="390" width="120" height="60" as="geometry" />
        </mxCell>
        <mxCell id="qxm1m2TuvtweTUUU2DV8-24" style="edgeStyle=orthogonalEdgeStyle;rounded=0;orthogonalLoop=1;jettySize=auto;html=1;entryX=0.5;entryY=0;entryDx=0;entryDy=0;" edge="1" parent="1" source="qxm1m2TuvtweTUUU2DV8-7" target="qxm1m2TuvtweTUUU2DV8-23">
          <mxGeometry relative="1" as="geometry" />
        </mxCell>
        <mxCell id="qxm1m2TuvtweTUUU2DV8-7" value="Write &quot;Numero non valido&quot;" style="shape=parallelogram;perimeter=parallelogramPerimeter;whiteSpace=wrap;html=1;fixedSize=1;" vertex="1" parent="1">
          <mxGeometry x="380" y="520" width="120" height="60" as="geometry" />
        </mxCell>
        <mxCell id="qxm1m2TuvtweTUUU2DV8-12" value="FALSE" style="text;html=1;align=center;verticalAlign=middle;resizable=0;points=[];autosize=1;strokeColor=none;fillColor=none;" vertex="1" parent="1">
          <mxGeometry x="410" y="448" width="60" height="30" as="geometry" />
        </mxCell>
        <mxCell id="qxm1m2TuvtweTUUU2DV8-26" value="" style="edgeStyle=orthogonalEdgeStyle;rounded=0;orthogonalLoop=1;jettySize=auto;html=1;" edge="1" parent="1" source="qxm1m2TuvtweTUUU2DV8-23" target="qxm1m2TuvtweTUUU2DV8-25">
          <mxGeometry relative="1" as="geometry" />
        </mxCell>
        <mxCell id="qxm1m2TuvtweTUUU2DV8-23" value="" style="ellipse;whiteSpace=wrap;html=1;aspect=fixed;" vertex="1" parent="1">
          <mxGeometry x="380" y="750" width="10" height="10" as="geometry" />
        </mxCell>
        <mxCell id="qxm1m2TuvtweTUUU2DV8-25" value="END" style="ellipse;whiteSpace=wrap;html=1;" vertex="1" parent="1">
          <mxGeometry x="325" y="800" width="120" height="80" as="geometry" />
        </mxCell>
      </root>
    </mxGraphModel>
  </diagram>
</mxfile>
